<svg width="25" height="24" viewBox="0 0 25 24" fill="none" xmlns="http://www.w3.org/2000/svg">
<path d="M21.25 3.99999H2.25V5.99999H4.55L7.83 15C8.03631 15.5835 8.41807 16.089 8.92294 16.4471C9.4278 16.8051 10.0311 16.9983 10.65 17H19.25V15H10.65C10.4445 14.9999 10.244 14.9365 10.0758 14.8184C9.9076 14.7003 9.77987 14.5333 9.71 14.34L9.25 13H18.53C18.964 12.9994 19.3861 12.8576 19.7324 12.596C20.0788 12.3344 20.3306 11.9673 20.45 11.55L22.25 5.26999C22.2906 5.13868 22.3038 5.00039 22.2886 4.86377C22.2734 4.72715 22.2302 4.59512 22.1617 4.47595C22.0932 4.35677 22.0009 4.25299 21.8904 4.1711C21.78 4.08921 21.6539 4.03096 21.52 3.99999C21.4306 3.98543 21.3394 3.98543 21.25 3.99999ZM18.5 11H8.5L6.68 5.99999H19.92L18.5 11Z" fill="black"/>
<path d="M10.75 21C11.5784 21 12.25 20.3284 12.25 19.5C12.25 18.6716 11.5784 18 10.75 18C9.92157 18 9.25 18.6716 9.25 19.5C9.25 20.3284 9.92157 21 10.75 21Z" fill="black"/>
<path d="M16.75 21C17.5784 21 18.25 20.3284 18.25 19.5C18.25 18.6716 17.5784 18 16.75 18C15.9216 18 15.25 18.6716 15.25 19.5C15.25 20.3284 15.9216 21 16.75 21Z" fill="black"/>
</svg>
