<svg width="22" height="21" viewBox="0 0 22 21" fill="none" xmlns="http://www.w3.org/2000/svg">
    <path d="M19.7363 2.25241C19.1523 1.54585 18.4189 0.977597 17.5889 0.588596C16.7589 0.199596 15.8529 -0.000469372 14.9363 0.0028124C13.3679 -0.0446766 11.8409 0.510749 10.6696 1.55481C9.49827 0.510749 7.97133 -0.0446766 6.40294 0.0028124C5.48629 -0.000469372 4.58033 0.199596 3.75032 0.588596C2.9203 0.977597 2.1869 1.54585 1.60294 2.25241C0.586404 3.48548 -0.477063 5.71801 0.228004 9.35641C1.35334 15.1665 9.79174 19.9345 10.148 20.1297C10.3068 20.2183 10.4856 20.2648 10.6675 20.2648C10.8493 20.2648 11.0281 20.2183 11.1869 20.1297C11.5453 19.9303 19.9837 15.1623 21.1069 9.35641C21.8163 5.71801 20.7528 3.48548 19.7363 2.25241ZM19.0173 8.95108C18.2216 13.0588 12.4381 16.8796 10.6696 17.9655C8.17787 16.4615 3.05147 12.6855 2.3272 8.95108C1.78 6.12868 2.5288 4.48921 3.25414 3.61028C3.63772 3.14746 4.11897 2.77528 4.66337 2.52041C5.20777 2.26554 5.80183 2.13432 6.40294 2.13615C7.04496 2.088 7.6885 2.20703 8.27081 2.48165C8.85313 2.75626 9.35435 3.17708 9.72561 3.70308C9.81715 3.87154 9.95221 4.01237 10.1167 4.11088C10.2812 4.2094 10.4691 4.262 10.6608 4.2632C10.8525 4.26439 11.0411 4.21415 11.2068 4.1177C11.3725 4.02125 11.5093 3.88212 11.6029 3.71481C11.9735 3.18472 12.4758 2.76034 13.0603 2.48351C13.6448 2.20668 14.2914 2.08696 14.9363 2.13615C15.5386 2.13321 16.1342 2.26391 16.6799 2.51881C17.2257 2.77372 17.7082 3.14649 18.0925 3.61028C18.8157 4.48921 19.5645 6.12868 19.0173 8.95108Z" fill="black"/>
    <path d="M19.0173 8.95108C18.2216 13.0588 12.4381 16.8796 10.6696 17.9655C8.17787 16.4615 3.05147 12.6855 2.3272 8.95108C1.78 6.12868 2.5288 4.48921 3.25414 3.61028C3.63772 3.14746 4.11897 2.77528 4.66337 2.52041C5.20777 2.26554 5.80183 2.13432 6.40294 2.13615C7.04496 2.088 7.6885 2.20703 8.27081 2.48165C8.85313 2.75626 9.35435 3.17708 9.72561 3.70308C9.81715 3.87154 9.95221 4.01237 10.1167 4.11088C10.2812 4.2094 10.4691 4.262 10.6608 4.2632C10.8525 4.26439 11.0411 4.21415 11.2068 4.1177C11.3725 4.02125 11.5093 3.88212 11.6029 3.71481C11.9735 3.18472 12.4758 2.76034 13.0603 2.48351C13.6448 2.20668 14.2914 2.08696 14.9363 2.13615C15.5386 2.13321 16.1342 2.26391 16.6799 2.51881C17.2257 2.77372 17.7082 3.14649 18.0925 3.61028C18.8157 4.48921 19.5645 6.12868 19.0173 8.95108Z" fill="black"/>
</svg>
