<svg width="25" height="24" viewBox="0 0 25 24" fill="none" xmlns="http://www.w3.org/2000/svg">
<path d="M22.1167 4.91608C21.5328 4.20951 20.7994 3.64126 19.9694 3.25226C19.1393 2.86326 18.2334 2.6632 17.3167 2.66648C15.7484 2.61899 14.2214 3.17441 13.0501 4.21848C11.8787 3.17441 10.3518 2.61899 8.78341 2.66648C7.86677 2.6632 6.9608 2.86326 6.13079 3.25226C5.30077 3.64126 4.56737 4.20951 3.98341 4.91608C2.96687 6.14915 1.90341 8.38168 2.60847 12.0201C3.73381 17.8302 12.1722 22.5982 12.5285 22.7934C12.6873 22.882 12.8661 22.9284 13.0479 22.9284C13.2298 22.9284 13.4086 22.882 13.5674 22.7934C13.9258 22.5939 22.3642 17.8259 23.4874 12.0201C24.1967 8.38168 23.1333 6.14915 22.1167 4.91608ZM21.3978 11.6147C20.6021 15.7225 14.8186 19.5433 13.0501 20.6291C10.5583 19.1251 5.43194 15.3491 4.70767 11.6147C4.16047 8.79235 4.90927 7.15288 5.63461 6.27395C6.01819 5.81113 6.49944 5.43894 7.04384 5.18408C7.58824 4.92921 8.1823 4.79798 8.78341 4.79981C9.42543 4.75166 10.069 4.8707 10.6513 5.14531C11.2336 5.41993 11.7348 5.84075 12.1061 6.36674C12.1976 6.53521 12.3327 6.67604 12.4972 6.77455C12.6617 6.87307 12.8496 6.92566 13.0413 6.92686C13.233 6.92806 13.4215 6.87781 13.5873 6.78136C13.753 6.68491 13.8898 6.54578 13.9834 6.37848C14.3539 5.84838 14.8562 5.424 15.4408 5.14717C16.0253 4.87034 16.6719 4.75062 17.3167 4.79981C17.9191 4.79688 18.5146 4.92757 19.0604 5.18248C19.6062 5.43738 20.0886 5.81015 20.473 6.27395C21.1962 7.15288 21.945 8.79235 21.3978 11.6147Z" fill="#CFCFCF"/>
</svg>
