<svg width="25" height="24" viewBox="0 0 25 24" fill="none" xmlns="http://www.w3.org/2000/svg">
<path d="M12.25 2C11.2611 2 10.2944 2.29324 9.47215 2.84265C8.6499 3.39206 8.00904 4.17295 7.6306 5.08658C7.25216 6.00021 7.15315 7.00555 7.34607 7.97545C7.539 8.94536 8.0152 9.83627 8.71447 10.5355C9.41373 11.2348 10.3046 11.711 11.2745 11.9039C12.2445 12.0969 13.2498 11.9978 14.1634 11.6194C15.077 11.241 15.8579 10.6001 16.4073 9.77785C16.9568 8.95561 17.25 7.98891 17.25 7C17.25 5.67392 16.7232 4.40215 15.7855 3.46447C14.8479 2.52678 13.5761 2 12.25 2V2ZM12.25 10C11.6567 10 11.0766 9.82405 10.5833 9.49441C10.0899 9.16476 9.70542 8.69623 9.47836 8.14805C9.2513 7.59987 9.19189 6.99667 9.30764 6.41473C9.4234 5.83279 9.70912 5.29824 10.1287 4.87868C10.5482 4.45912 11.0828 4.1734 11.6647 4.05764C12.2467 3.94189 12.8499 4.0013 13.3981 4.22836C13.9462 4.45542 14.4148 4.83994 14.7444 5.33329C15.0741 5.82664 15.25 6.40666 15.25 7C15.25 7.79565 14.9339 8.55871 14.3713 9.12132C13.8087 9.68393 13.0456 10 12.25 10V10ZM21.25 21V20C21.25 18.1435 20.5125 16.363 19.1997 15.0503C17.887 13.7375 16.1065 13 14.25 13H10.25C8.39348 13 6.61301 13.7375 5.30025 15.0503C3.9875 16.363 3.25 18.1435 3.25 20V21H5.25V20C5.25 18.6739 5.77678 17.4021 6.71447 16.4645C7.65215 15.5268 8.92392 15 10.25 15H14.25C15.5761 15 16.8479 15.5268 17.7855 16.4645C18.7232 17.4021 19.25 18.6739 19.25 20V21H21.25Z" fill="black"/>
</svg>
