<svg width="25" height="24" viewBox="0 0 25 24" fill="none" xmlns="http://www.w3.org/2000/svg">
<path d="M16.25 12H18.25V16H16.25V12Z" fill="#CFCFCF"/>
<path d="M20.25 7V5C20.25 3.897 19.353 3 18.25 3H5.25C3.596 3 2.25 4.346 2.25 6V18C2.25 20.201 4.044 21 5.25 21H20.25C21.353 21 22.25 20.103 22.25 19V9C22.25 7.897 21.353 7 20.25 7ZM5.25 5H18.25V7H5.25C4.99252 6.98848 4.74941 6.87809 4.57128 6.69182C4.39315 6.50554 4.29373 6.25774 4.29373 6C4.29373 5.74226 4.39315 5.49446 4.57128 5.30818C4.74941 5.12191 4.99252 5.01152 5.25 5V5ZM20.25 19H5.262C4.8 18.988 4.25 18.805 4.25 18V8.815C4.564 8.928 4.897 9 5.25 9H20.25V19Z" fill="#CFCFCF"/>
</svg>
